<svg
  fill="none"
  height="112"
  viewBox="0 0 112 112"
  width="112"
  xmlns="http://www.w3.org/2000/svg"
>
  <title>Launch icon</title>
  <g filter="url(#filter0_d_455_541)">
    <rect fill="#232831" height="80" rx="40" width="80" x="16" y="16" />
    <circle cx="56.0006" cy="56.5" fill="#FFF4D7" opacity="0.4" r="16.6667" />
    <path
      clip-rule="evenodd"
      d="M51.9284 49.9527C52.1981 48.4035 52.5592 47.0111 52.9884 45.8307C53.4772 44.4866 54.034 43.4738 54.5988 42.8169C55.1666 42.1565 55.6439 41.961 56.0006 41.961C56.3573 41.961 56.8346 42.1565 57.4024 42.8169C57.9672 43.4738 58.524 44.4866 59.0128 45.8307C59.442 47.0111 59.8031 48.4035 60.0728 49.9527C58.768 49.8281 57.4031 49.7624 56.0006 49.7624C54.5981 49.7624 53.2332 49.8281 51.9284 49.9527ZM49.7272 50.2266C50.0236 48.3135 50.4529 46.5776 50.9889 45.1036C51.5269 43.6241 52.1926 42.352 52.9854 41.4298C53.7753 40.5111 54.7905 39.8334 56.0006 39.8334C57.2107 39.8334 58.2259 40.5111 59.0158 41.4298C59.8086 42.352 60.4743 43.6241 61.0123 45.1036C61.5483 46.5776 61.9776 48.3135 62.274 50.2266C64.1871 50.523 65.923 50.9523 67.397 51.4883C68.8765 52.0263 70.1486 52.692 71.0708 53.4848C71.9895 54.2747 72.6672 55.2899 72.6672 56.5C72.6672 57.7101 71.9895 58.7253 71.0708 59.5152C70.1486 60.308 68.8765 60.9737 67.397 61.5117C65.923 62.0477 64.1871 62.477 62.274 62.7734C61.9776 64.6865 61.5483 66.4224 61.0123 67.8964C60.4743 69.3759 59.8086 70.648 59.0158 71.5702C58.2259 72.4889 57.2107 73.1666 56.0006 73.1666C54.7905 73.1666 53.7753 72.4889 52.9854 71.5702C52.1926 70.648 51.5269 69.3759 50.9889 67.8964C50.4529 66.4224 50.0236 64.6865 49.7272 62.7734C47.8141 62.477 46.0782 62.0477 44.6042 61.5117C43.1247 60.9737 41.8526 60.308 40.9304 59.5152C40.0117 58.7253 39.334 57.7101 39.334 56.5C39.334 55.2899 40.0117 54.2747 40.9304 53.4848C41.8526 52.692 43.1247 52.0263 44.6042 51.4883C46.0782 50.9523 47.8141 50.523 49.7272 50.2266ZM49.4533 60.5722C47.9041 60.3025 46.5117 59.9414 45.3313 59.5122C43.9873 59.0234 42.9744 58.4666 42.3175 57.9018C41.6571 57.334 41.4616 56.8567 41.4616 56.5C41.4616 56.1433 41.6571 55.666 42.3175 55.0982C42.9744 54.5334 43.9873 53.9766 45.3313 53.4878C46.5117 53.0586 47.9041 52.6975 49.4533 52.4278C49.3288 53.7326 49.263 55.0975 49.263 56.5C49.263 57.9025 49.3288 59.2674 49.4533 60.5722ZM51.6232 60.8774C51.4725 59.4973 51.3907 58.0279 51.3907 56.5C51.3907 54.9721 51.4725 53.5027 51.6232 52.1225C53.0033 51.9719 54.4727 51.8901 56.0006 51.8901C57.5285 51.8901 58.9979 51.9719 60.3781 52.1225C60.5287 53.5027 60.6105 54.9721 60.6105 56.5C60.6105 58.0279 60.5287 59.4973 60.3781 60.8774C58.9979 61.0281 57.5285 61.1099 56.0006 61.1099C54.4727 61.1099 53.0033 61.0281 51.6232 60.8774ZM51.9284 63.0473C52.1981 64.5965 52.5592 65.9889 52.9884 67.1693C53.4772 68.5133 54.034 69.5262 54.5988 70.1831C55.1666 70.8435 55.6439 71.039 56.0006 71.039C56.3573 71.039 56.8346 70.8435 57.4024 70.1831C57.9672 69.5262 58.524 68.5133 59.0128 67.1693C59.442 65.9889 59.8031 64.5965 60.0728 63.0473C58.768 63.1718 57.4031 63.2376 56.0006 63.2376C54.5981 63.2376 53.2332 63.1718 51.9284 63.0473ZM62.5479 60.5722C64.0971 60.3025 65.4895 59.9414 66.6699 59.5122C68.0139 59.0234 69.0268 58.4666 69.6837 57.9018C70.3441 57.334 70.5396 56.8567 70.5396 56.5C70.5396 56.1433 70.3441 55.666 69.6837 55.0982C69.0268 54.5334 68.0139 53.9766 66.6699 53.4878C65.4895 53.0586 64.0971 52.6975 62.5479 52.4278C62.6724 53.7326 62.7382 55.0975 62.7382 56.5C62.7382 57.9025 62.6724 59.2674 62.5479 60.5722Z"
      fill="#FFF4D7"
      fill-rule="evenodd"
    />
  </g>
  <defs>
    <filter
      color-interpolation-filters="sRGB"
      filterUnits="userSpaceOnUse"
      height="112"
      id="filter0_d_455_541"
      width="112"
      x="0"
      y="0"
    >
      <feFlood flood-opacity="0" result="BackgroundImageFix" />
      <feColorMatrix
        in="SourceAlpha"
        result="hardAlpha"
        type="matrix"
        values="0 0 0 0 0 0 0 0 0 0 0 0 0 0 0 0 0 0 127 0"
      />
      <feOffset />
      <feGaussianBlur stdDeviation="8" />
      <feComposite in2="hardAlpha" operator="out" />
      <feColorMatrix
        type="matrix"
        values="0 0 0 0 1 0 0 0 0 0.94902 0 0 0 0 0.819608 0 0 0 0.6 0"
      />
      <feBlend
        in2="BackgroundImageFix"
        mode="normal"
        result="effect1_dropShadow_455_541"
      />
      <feBlend
        in="SourceGraphic"
        in2="effect1_dropShadow_455_541"
        mode="normal"
        result="shape"
      />
    </filter>
  </defs>
</svg>
